# 3ds Max Wavefront OBJ Exporter v0.99 - (c)2007 guruware
# File Created: 27.09.2024 15:13:17

mtllib cofre.mtl

#
# object cofre
#

v  1.8116 0.1210 -1.1002
v  1.7716 0.1587 -1.1203
v  1.7326 0.1186 -1.1002
v  3.6656 0.1186 -1.1002
v  3.6256 0.1587 -1.1203
v  3.5866 0.1210 -1.1002
v  4.2326 -0.7602 -5.1402
v  4.1906 -0.7349 -5.1634
v  4.3896 -0.5499 -4.6267
v  1.1426 -0.7628 -5.1279
v  0.9816 -0.5646 -4.6105
v  1.0076 -0.5499 -4.6267
v  1.1656 -0.7602 -5.1402
v  1.2076 -0.7349 -5.1634
v  4.2556 -0.7628 -5.1279
v  4.4166 -0.5646 -4.6105
v  4.8186 -0.1277 -2.0794
v  4.7386 -0.0630 -2.0650
v  4.8646 0.0484 -1.0581
v  4.9616 -0.0044 -0.9544
v  0.5796 -0.1277 -2.0794
v  0.5336 0.0484 -1.0581
v  0.6596 -0.0630 -2.0650
v  0.4366 -0.0044 -0.9544
v  0.8066 -0.3581 -3.5961
v  0.9006 -0.3065 -3.5977
v  4.9426 0.1129 -0.4203
v  5.0276 0.0477 -0.4995
v  0.4556 0.1129 -0.4203
v  0.3706 0.0477 -0.4995
v  0.8936 0.0834 -1.1196
v  1.0716 0.0039 -2.0650
v  1.0596 -0.0059 -2.0650
v  4.5036 0.0834 -1.1196
v  4.3386 -0.0059 -2.0650
v  4.3266 0.0039 -2.0650
v  4.1266 -0.7148 -5.1780
v  4.2986 -0.5222 -4.6483
v  1.3546 -0.1971 -3.5313
v  4.0436 -0.1971 -3.5313
v  1.3136 -0.7044 -5.1874
v  1.2706 -0.7148 -5.1780
v  1.0996 -0.5222 -4.6483
v  4.4976 -0.3065 -3.5977
v  4.5906 -0.3581 -3.5961
v  4.3956 -0.0371 -2.0650
v  1.0016 -0.0371 -2.0650
v  4.1506 -0.2711 -3.5977
v  1.2476 -0.2711 -3.5977
v  4.0846 -0.7044 -5.1874
v  4.2666 -0.5163 -4.6483
v  1.3716 -0.1847 -3.5196
v  1.4986 -0.2142 -3.6558
v  4.0266 -0.1847 -3.5196
v  3.8996 -0.2142 -3.6558
v  4.7256 -0.6966 -4.7946
v  -0.0124 0.0129 0.0051
v  5.4096 0.0129 0.0051
v  0.6726 -0.6966 -4.7946
v  0.0906 -0.6492 -4.3297
v  5.3076 -0.6492 -4.3297
v  5.4016 -0.2280 -2.0650
v  -0.0034 -0.2280 -2.0650
v  5.3416 -0.5717 -3.9882
v  5.3616 -0.4946 -3.5970
v  0.0566 -0.5717 -3.9882
v  1.1306 -0.5163 -4.6483
v  0.0356 -0.4946 -3.5970
v  3.7696 -0.3279 -3.9219
v  3.8826 -0.3197 -3.8718
v  3.9066 -0.3431 -3.9259
v  4.0126 -0.3315 -3.8491
v  3.9856 -0.3074 -3.8038
v  4.0866 -0.2916 -3.7141
v  3.7316 -0.2231 -3.7078
v  3.8896 -0.2007 -3.6352
v  2.6986 -0.3324 -3.9330
v  3.7806 -0.3509 -3.9784
v  2.6986 -0.2247 -3.7164
v  1.6176 -0.4764 -4.6486
v  1.6176 -0.6806 -5.2198
v  2.1516 -0.6671 -5.2378
v  2.6986 -0.4764 -4.6486
v  2.6986 -0.6671 -5.2378
v  3.2466 -0.6671 -5.2378
v  3.7806 -0.4764 -4.6486
v  3.7806 -0.6806 -5.2198
v  1.6666 -0.2231 -3.7078
v  1.6706 -0.2108 -3.6804
v  1.5086 -0.2007 -3.6352
v  3.7266 -0.2108 -3.6804
v  3.8626 -0.1889 -3.5724
v  2.6986 -0.3560 -4.0051
v  1.5156 -0.3197 -3.8718
v  1.4126 -0.3074 -3.8038
v  1.3846 -0.3315 -3.8491
v  1.3116 -0.2916 -3.7141
v  1.6286 -0.3279 -3.9219
v  1.4916 -0.3431 -3.9259
v  1.6176 -0.3509 -3.9784
v  1.2686 -0.3140 -3.7420
v  1.1996 -0.2864 -3.5977
v  0.9796 -0.0504 -2.0650
v  0.9246 0.1326 -0.6133
v  0.9596 0.0874 -1.1455
v  1.6576 0.0940 -1.2552
v  1.1206 0.0100 -2.0650
v  1.4256 -0.1754 -3.4723
v  1.5356 -0.1889 -3.5724
v  1.6806 -0.1965 -3.6081
v  2.6986 -0.2132 -3.6859
v  4.1296 -0.3140 -3.7420
v  4.1986 -0.2864 -3.5977
v  4.4186 -0.0504 -2.0650
v  4.4736 0.1326 -0.6133
v  4.4386 0.0874 -1.1455
v  4.2776 0.0100 -2.0650
v  3.7406 0.0940 -1.2552
v  3.7806 0.1714 -0.7336
v  3.9716 -0.1754 -3.4723
v  2.6986 0.1963 -0.7909
v  4.2656 -0.0063 -2.0650
v  3.7166 -0.1965 -3.6081
v  1.6176 0.1714 -0.7336
v  2.6986 0.1057 -1.3375
v  4.2526 -0.0809 -2.0650
v  1.7526 -0.0582 -2.0650
v  1.1456 -0.0809 -2.0650
v  1.9326 -0.2949 -2.9521
v  1.4226 -0.4185 -3.1566
v  1.9846 -0.4206 -3.1777
v  2.6986 -0.0326 -2.0650
v  2.6986 -0.2877 -2.9488
v  2.6986 -0.4257 -3.1777
v  3.4126 -0.4206 -3.1777
v  3.6456 -0.0582 -2.0650
v  3.4656 -0.2949 -2.9521
v  4.0236 -0.3041 -2.9463
v  3.9756 -0.4185 -3.1566
v  1.3746 -0.3041 -2.9463
v  1.7326 0.0997 -1.2225
v  1.8116 0.1023 -1.2225
v  3.6656 0.0997 -1.2225
v  3.5866 0.1023 -1.2225
v  2.6986 -0.2033 -3.6055
v  2.6986 -0.2247 -3.5929
v  1.6806 -0.4185 -3.5616
v  2.6986 -0.4185 -3.5697
v  3.7166 -0.4185 -3.5616
v  1.6806 -0.2165 -3.5907
v  1.5426 -0.4185 -3.5392
v  3.7166 -0.2165 -3.5907
v  3.8556 -0.4185 -3.5392
v  3.8616 -0.2067 -3.5581
v  1.5366 -0.2067 -3.5581
v  1.4356 -0.1949 -3.4696
v  3.9626 -0.1949 -3.4696
v  1.1316 -0.0063 -2.0650
v  1.4556 -0.4185 -3.4498
v  3.9426 -0.4185 -3.4498
# 160 vertices

vn -0.0157 0.4566 0.8895
vn 0.0157 0.4566 0.8895
vn 0.6283 0.6362 -0.4477
vn 0.4558 0.7781 -0.4323
vn 0.4728 0.7959 -0.3782
vn -0.1498 0.9067 -0.3942
vn -0.1569 0.9415 -0.2982
vn -0.4728 0.7959 -0.3782
vn -0.6283 0.6362 -0.4477
vn -0.4558 0.7781 -0.4323
vn 0.1498 0.9067 -0.3942
vn 0.1569 0.9415 -0.2982
vn 0.5663 0.8023 -0.1888
vn 0.5747 0.8031 -0.1575
vn -0.5663 0.8023 -0.1888
vn -0.5747 0.8031 -0.1575
vn -0.4728 0.8510 -0.2285
vn 0.5514 0.8192 -0.1575
vn -0.5514 0.8192 -0.1575
vn -0.1099 0.9887 -0.1020
vn -0.0948 0.9874 -0.1264
vn -0.4492 0.8748 -0.1813
vn 0.1099 0.9887 -0.1020
vn 0.4492 0.8748 -0.1813
vn 0.0948 0.9874 -0.1264
vn 0.3618 0.8338 -0.4169
vn 0.3785 0.8516 -0.3627
vn -0.4322 0.8801 -0.1965
vn 0.4322 0.8801 -0.1965
vn -0.0942 0.9338 -0.3453
vn -0.3618 0.8338 -0.4169
vn -0.3785 0.8516 -0.3627
vn 0.4728 0.8510 -0.2285
vn 0.4105 0.8762 -0.2526
vn 0.3460 0.9121 -0.2202
vn 0.4723 0.8658 -0.1653
vn -0.4723 0.8658 -0.1653
vn 0.0942 0.9338 -0.3453
vn 0.0631 0.9696 -0.2365
vn -0.0552 0.9859 -0.1577
vn -0.1895 0.8844 -0.4264
vn 0.0552 0.9859 -0.1577
vn 0.1895 0.8844 -0.4264
vn 0.1655 0.9140 -0.3703
vn -0.4255 0.8668 -0.2600
vn 0.4255 0.8668 -0.2600
vn -0.1655 0.9140 -0.3703
vn -0.1653 0.9446 -0.2834
vn 0.1653 0.9446 -0.2834
vn 0.2441 0.9605 -0.1338
vn 0.2200 0.9663 -0.1336
vn 0.2841 0.9470 -0.1499
vn -0.2200 0.9663 -0.1336
vn -0.2441 0.9605 -0.1338
vn -0.2841 0.9470 -0.1499
vn 0.1805 0.9734 -0.1413
vn -0.1805 0.9734 -0.1413
vn 0.1569 0.9647 -0.2118
vn 0.1729 0.9667 -0.1886
vn -0.1569 0.9647 -0.2118
vn -0.0631 0.9696 -0.2365
vn 0.1727 0.9736 -0.1492
vn -0.1727 0.9736 -0.1492
vn -0.1729 0.9667 -0.1886
vn 0.0000 0.8976 -0.4409
vn 0.1340 0.8910 -0.4337
vn 0.0000 0.9835 -0.1810
vn -0.0079 0.9820 -0.1885
vn 0.2130 0.8755 -0.4338
vn 0.2836 0.8743 -0.3938
vn 0.0079 0.9835 -0.1810
vn 0.0157 0.9834 -0.1809
vn -0.1650 0.9665 -0.1964
vn -0.0473 0.9622 -0.2682
vn -0.0709 0.9381 -0.3390
vn -0.0158 0.9462 -0.3233
vn 0.0000 0.9697 -0.2444
vn 0.0000 0.9518 -0.3068
vn 0.0158 0.9462 -0.3233
vn 0.0473 0.9622 -0.2682
vn 0.0709 0.9381 -0.3390
vn 0.0079 0.9848 -0.1733
vn -0.0079 0.9835 -0.1810
vn -0.0079 0.9848 -0.1733
vn -0.1340 0.8910 -0.4337
vn -0.2130 0.8755 -0.4338
vn 0.0079 0.9820 -0.1885
vn -0.2836 0.8743 -0.3938
vn -0.0157 0.9834 -0.1809
vn -0.0079 0.9771 -0.2127
vn -0.0631 0.9783 -0.1972
vn -0.0314 0.9816 -0.1885
vn -0.0631 0.9867 -0.1500
vn -0.0864 0.9893 -0.1178
vn -0.0943 0.9903 -0.1022
vn -0.0710 0.9937 -0.0868
vn -0.0551 0.9915 -0.1180
vn 0.0000 0.9874 -0.1580
vn 0.0079 0.9771 -0.2127
vn 0.0631 0.9783 -0.1972
vn 0.0314 0.9816 -0.1885
vn 0.0631 0.9867 -0.1500
vn 0.0864 0.9893 -0.1178
vn 0.0710 0.9937 -0.0868
vn 0.0943 0.9903 -0.1022
vn 0.0551 0.9915 -0.1180
vn -0.9718 0.1501 0.1817
vn 0.0393 0.9827 -0.1808
vn -0.0315 0.9830 -0.1809
vn -0.0393 0.9827 -0.1808
vn 0.0000 0.9541 -0.2996
vn 0.0000 0.8730 -0.4876
vn 0.0315 0.9830 -0.1809
vn -0.7379 0.6672 -0.1020
vn -0.0236 0.9538 -0.2995
vn -0.4187 0.8453 -0.3318
vn 0.3775 0.8651 -0.3303
vn 0.7151 0.6915 -0.1022
vn 0.4187 0.8453 -0.3318
vn 0.0236 0.9538 -0.2995
vn 0.7379 0.6672 -0.1020
vn -0.7151 0.6915 -0.1022
vn -0.3775 0.8651 -0.3303
vn 0.0000 0.2203 0.9754
vn 0.0079 0.2203 0.9754
vn -0.0079 0.2203 0.9754
vn 0.4586 0.1819 0.8698
vn -0.4586 0.1819 0.8698
vn 0.9728 0.1098 0.2040
vn -0.9728 0.1098 0.2040
vn 0.9718 0.1501 0.1817
vn 0.9594 0.1416 0.2438
vn -0.9594 0.1416 0.2438
vn -0.9780 0.1025 0.1814
vn 0.9708 0.1736 0.1657
vn 0.9780 0.1025 0.1814
vn 0.9716 0.1027 0.2133
vn -0.9716 0.1027 0.2133
vn -0.9708 0.1736 0.1657
# 139 vertex normals

vt 0.7913 0.6589 0.0000
vt 0.7880 0.6656 0.0000
vt 0.7913 0.6723 0.0000
vt 0.7913 0.3423 0.0000
vt 0.7880 0.3490 0.0000
vt 0.7913 0.3557 0.0000
vt 0.1253 0.2442 0.0000
vt 0.1214 0.2516 0.0000
vt 0.2099 0.2171 0.0000
vt 0.1273 0.7744 0.0000
vt 0.2125 0.8020 0.0000
vt 0.2099 0.7975 0.0000
vt 0.1253 0.7704 0.0000
vt 0.1214 0.7630 0.0000
vt 0.1273 0.2402 0.0000
vt 0.2125 0.2124 0.0000
vt 0.6298 0.1430 0.0000
vt 0.6321 0.1569 0.0000
vt 0.7982 0.1352 0.0000
vt 0.8153 0.1184 0.0000
vt 0.6298 0.8716 0.0000
vt 0.7982 0.8794 0.0000
vt 0.6321 0.8577 0.0000
vt 0.8153 0.8960 0.0000
vt 0.3798 0.8321 0.0000
vt 0.3796 0.8162 0.0000
vt 0.9205 0.1217 0.0000
vt 0.8903 0.1071 0.0000
vt 0.9254 0.8953 0.0000
vt 0.8903 0.9075 0.0000
vt 0.7880 0.8173 0.0000
vt 0.6321 0.7866 0.0000
vt 0.6321 0.7886 0.0000
vt 0.7880 0.1973 0.0000
vt 0.6321 0.2261 0.0000
vt 0.6321 0.2281 0.0000
vt 0.1190 0.2624 0.0000
vt 0.2064 0.2328 0.0000
vt 0.3904 0.7379 0.0000
vt 0.3904 0.2768 0.0000
vt 0.1175 0.7448 0.0000
vt 0.1190 0.7520 0.0000
vt 0.2064 0.7818 0.0000
vt 0.3796 0.1985 0.0000
vt 0.3798 0.1823 0.0000
vt 0.6321 0.2160 0.0000
vt 0.6321 0.7987 0.0000
vt 0.3796 0.2584 0.0000
vt 0.3796 0.7563 0.0000
vt 0.1175 0.2698 0.0000
vt 0.2064 0.2382 0.0000
vt 0.3924 0.7347 0.0000
vt 0.3701 0.7130 0.0000
vt 0.3924 0.2799 0.0000
vt 0.3701 0.3017 0.0000
vt 0.1823 0.1592 0.0000
vt 0.9666 0.9663 0.0000
vt 0.9666 0.0483 0.0000
vt 0.1823 0.8554 0.0000
vt 0.2345 0.9093 0.0000
vt 0.2142 0.2124 0.0000
vt 0.2085 0.1167 0.0000
vt 0.1841 0.1592 0.0000
vt 0.6459 0.0673 0.0000
vt 0.6332 0.9563 0.0000
vt 0.3815 0.1823 0.0000
vt 0.3307 0.0783 0.0000
vt 0.3951 0.0741 0.0000
vt 0.3000 0.9162 0.0000
vt 0.2064 0.7762 0.0000
vt 0.2085 0.1183 0.0000
vt 0.3307 0.0799 0.0000
vt 0.3933 0.0741 0.0000
vt 0.3613 0.9242 0.0000
vt 0.3261 0.3241 0.0000
vt 0.3343 0.3046 0.0000
vt 0.3254 0.3005 0.0000
vt 0.3382 0.2821 0.0000
vt 0.3456 0.2869 0.0000
vt 0.3603 0.2696 0.0000
vt 0.3614 0.3308 0.0000
vt 0.3733 0.3035 0.0000
vt 0.3243 0.5090 0.0000
vt 0.3167 0.3223 0.0000
vt 0.3601 0.5090 0.0000
vt 0.2064 0.6923 0.0000
vt 0.0817 0.6935 0.0000
vt 0.0524 0.6013 0.0000
vt 0.2064 0.5090 0.0000
vt 0.0405 0.5139 0.0000
vt 0.0524 0.4157 0.0000
vt 0.2064 0.3223 0.0000
vt 0.0817 0.3235 0.0000
vt 0.3614 0.6838 0.0000
vt 0.3659 0.6831 0.0000
vt 0.3733 0.7112 0.0000
vt 0.3659 0.3315 0.0000
vt 0.3837 0.3080 0.0000
vt 0.3124 0.5090 0.0000
vt 0.3343 0.7100 0.0000
vt 0.3456 0.7278 0.0000
vt 0.3382 0.7325 0.0000
vt 0.3603 0.7450 0.0000
vt 0.3261 0.6905 0.0000
vt 0.3254 0.7141 0.0000
vt 0.3167 0.6923 0.0000
vt 0.3558 0.7524 0.0000
vt 0.3796 0.7643 0.0000
vt 0.6321 0.8025 0.0000
vt 0.9041 0.8119 0.0000
vt 0.7837 0.8058 0.0000
vt 0.7657 0.6854 0.0000
vt 0.6321 0.7780 0.0000
vt 0.4002 0.7253 0.0000
vt 0.3837 0.7064 0.0000
vt 0.3779 0.6813 0.0000
vt 0.3651 0.5090 0.0000
vt 0.3558 0.2622 0.0000
vt 0.3796 0.2501 0.0000
vt 0.6321 0.2121 0.0000
vt 0.9041 0.2027 0.0000
vt 0.7837 0.2088 0.0000
vt 0.6321 0.2366 0.0000
vt 0.7657 0.3290 0.0000
vt 0.8844 0.3223 0.0000
vt 0.4002 0.2893 0.0000
vt 0.8748 0.5090 0.0000
vt 0.6321 0.2384 0.0000
vt 0.3779 0.3333 0.0000
vt 0.8844 0.6923 0.0000
vt 0.7522 0.5090 0.0000
vt 0.6321 0.2409 0.0000
vt 0.6321 0.6690 0.0000
vt 0.6321 0.7738 0.0000
vt 0.4860 0.6380 0.0000
vt 0.4522 0.7260 0.0000
vt 0.4487 0.6288 0.0000
vt 0.6321 0.5090 0.0000
vt 0.4865 0.5090 0.0000
vt 0.4487 0.5090 0.0000
vt 0.4487 0.3858 0.0000
vt 0.6321 0.3456 0.0000
vt 0.4860 0.3766 0.0000
vt 0.4869 0.2804 0.0000
vt 0.4522 0.2887 0.0000
vt 0.5001 0.7365 0.0000
vt 0.7711 0.6723 0.0000
vt 0.7711 0.6589 0.0000
vt 0.7711 0.3423 0.0000
vt 0.7711 0.3557 0.0000
vt 0.3783 0.5090 0.0000
vt 0.3802 0.5090 0.0000
vt 0.3855 0.6813 0.0000
vt 0.3842 0.5090 0.0000
vt 0.3855 0.3333 0.0000
vt 0.3807 0.6813 0.0000
vt 0.3891 0.7053 0.0000
vt 0.3807 0.3333 0.0000
vt 0.3891 0.3093 0.0000
vt 0.3861 0.3082 0.0000
vt 0.3861 0.7062 0.0000
vt 0.4006 0.7237 0.0000
vt 0.4006 0.2909 0.0000
vt 0.6321 0.7762 0.0000
vt 0.4039 0.7204 0.0000
vt 0.4039 0.2943 0.0000
# 166 texture coords

o cofre
g cofre
usemtl Material__9
s 1
f 1/1/1 2/2/1 3/3/1 
f 4/4/2 5/5/2 6/6/2 
f 7/7/3 8/8/4 9/9/5 
f 10/10/6 11/11/7 12/12/8 
f 13/13/9 12/12/8 14/14/10 
f 15/15/11 9/9/5 16/16/12 
f 17/17/13 18/18/13 19/19/14 
f 17/17/13 19/19/14 20/20/14 
f 21/21/15 22/22/16 23/23/15 
f 21/21/15 24/24/16 22/22/16 
f 11/11/7 25/25/17 12/12/8 
f 21/21/15 23/23/15 26/26/17 
f 20/20/14 19/19/14 27/27/18 
f 20/20/14 27/27/18 28/28/18 
f 29/29/19 22/22/16 24/24/16 
f 29/29/19 24/24/16 30/30/19 
f 31/31/20 32/32/21 33/33/22 
f 34/34/23 35/35/24 36/36/25 
f 37/37/26 38/38/27 8/8/4 
f 38/38/27 9/9/5 8/8/4 
f 10/10/6 12/12/8 13/13/9 
f 15/15/11 7/7/3 9/9/5 
f 32/32/21 39/39/28 33/33/22 
f 36/36/25 35/35/24 40/40/29 
f 41/41/30 42/42/31 43/43/32 
f 42/42/31 14/14/10 43/43/32 
f 43/43/32 14/14/10 12/12/8 
f 17/17/13 44/44/33 18/18/13 
f 44/44/33 9/9/5 38/38/34 
f 25/25/17 26/26/17 43/43/32 
f 44/44/33 45/45/35 9/9/5 
f 21/21/15 26/26/17 25/25/17 
f 34/34/36 46/46/24 35/35/24 
f 31/31/37 33/33/22 47/47/22 
f 35/35/24 48/48/29 40/40/29 
f 33/33/22 39/39/28 49/49/28 
f 50/50/38 51/51/39 38/38/27 
f 50/50/38 38/38/27 37/37/26 
f 35/35/24 46/46/24 48/48/29 
f 33/33/22 49/49/28 47/47/22 
f 25/25/17 43/43/32 12/12/8 
f 52/52/40 53/53/41 39/39/28 
f 54/54/42 40/40/29 55/55/43 
f 56/56/44 15/15/11 16/16/12 
f 29/29/45 30/30/45 57/57/45 
f 27/27/46 58/58/46 28/28/46 
f 11/11/7 59/59/47 60/60/48 
f 16/61/12 61/62/49 56/63/44 
f 58/58/50 20/20/51 28/28/52 
f 24/24/53 57/57/54 30/30/55 
f 20/20/51 58/58/50 62/64/56 
f 57/57/54 24/24/53 63/65/57 
f 16/61/12 9/9/5 45/45/35 
f 16/61/12 45/66/35 64/67/58 
f 65/68/59 64/67/58 45/66/35 
f 17/17/13 45/66/35 44/44/33 
f 59/59/47 11/11/7 10/10/6 
f 60/60/48 66/69/60 11/11/7 
f 67/70/61 43/43/32 26/26/17 
f 61/71/49 16/61/12 64/72/58 
f 65/73/59 17/17/62 62/64/56 
f 20/20/51 62/64/56 17/17/62 
f 21/21/63 68/74/64 63/65/57 
f 63/65/57 24/24/53 21/21/63 
f 69/75/65 70/76/66 71/77/67 
f 70/76/66 72/78/68 71/77/67 
f 70/76/66 73/79/69 72/78/68 
f 55/55/43 73/79/69 70/76/66 
f 40/40/29 74/80/70 55/55/43 
f 55/55/43 70/76/66 75/81/65 
f 70/76/66 69/75/65 75/81/65 
f 54/54/42 55/55/43 76/82/71 
f 76/82/71 55/55/43 75/81/65 
f 77/83/65 75/81/65 69/75/65 
f 78/84/72 77/83/65 69/75/65 
f 77/83/65 79/85/65 75/81/65 
f 11/11/7 66/69/60 25/25/73 
f 68/74/64 25/25/73 66/69/60 
f 65/73/59 45/45/35 17/17/62 
f 21/21/63 25/25/73 68/74/64 
f 80/86/74 41/41/30 67/70/61 
f 41/41/30 80/86/74 81/87/75 
f 82/88/76 81/87/75 80/86/74 
f 82/88/76 83/89/77 84/90/78 
f 85/91/79 84/90/78 83/89/77 
f 85/91/79 83/89/77 86/92/80 
f 85/91/79 86/92/80 87/93/81 
f 50/50/38 87/93/81 86/92/80 
f 86/92/80 51/51/39 50/50/38 
f 79/85/65 88/94/65 89/95/82 
f 90/96/83 89/95/82 88/94/65 
f 79/85/65 91/97/84 75/81/65 
f 76/82/71 75/81/65 91/97/84 
f 82/88/76 80/86/74 83/89/77 
f 92/98/71 54/54/42 76/82/71 
f 92/98/71 76/82/71 91/97/84 
f 78/84/72 93/99/67 77/83/65 
f 86/92/80 93/99/67 78/84/72 
f 77/83/65 88/94/65 79/85/65 
f 86/92/80 83/89/77 93/99/67 
f 90/96/83 88/94/65 53/53/41 
f 52/52/40 90/96/83 53/53/41 
f 53/53/41 88/94/65 94/100/85 
f 53/53/41 94/100/85 95/101/86 
f 94/100/85 96/102/87 95/101/86 
f 39/39/28 53/53/41 97/103/88 
f 94/100/85 88/94/65 98/104/65 
f 94/100/85 99/105/67 96/102/87 
f 98/104/65 99/105/67 94/100/85 
f 98/104/65 100/106/89 99/105/67 
f 80/86/74 99/105/67 100/106/89 
f 80/86/74 100/106/89 93/99/67 
f 100/106/89 77/83/65 93/99/67 
f 100/106/89 98/104/65 77/83/65 
f 80/86/74 93/99/67 83/89/77 
f 77/83/65 98/104/65 88/94/65 
f 67/70/61 99/105/67 80/86/74 
f 96/102/87 99/105/67 67/70/61 
f 41/41/30 43/43/32 67/70/61 
f 67/70/61 101/107/90 96/102/87 
f 26/26/91 101/107/90 67/70/61 
f 95/101/86 96/102/87 101/107/90 
f 95/101/86 101/107/90 97/103/88 
f 102/108/92 101/107/90 26/26/91 
f 97/103/88 101/107/90 102/108/92 
f 47/47/22 49/49/28 102/108/92 
f 47/47/22 102/108/92 103/109/40 
f 103/109/40 102/108/92 26/26/91 
f 103/109/40 26/26/91 23/23/93 
f 31/31/20 103/109/40 23/23/93 
f 103/109/40 31/31/20 47/47/22 
f 97/103/88 53/53/41 95/101/86 
f 97/103/88 102/108/92 49/49/28 
f 39/39/28 97/103/88 49/49/28 
f 31/31/20 23/23/93 22/22/94 
f 22/22/94 29/29/95 104/110/96 
f 22/22/94 104/110/96 31/31/20 
f 104/110/96 105/111/20 31/31/20 
f 104/110/96 106/112/97 105/111/20 
f 31/31/20 105/111/20 107/113/21 
f 31/31/20 107/113/21 32/32/21 
f 107/113/21 52/52/40 32/32/21 
f 107/113/21 108/114/40 52/52/40 
f 109/115/83 52/52/40 108/114/40 
f 32/32/21 52/52/40 39/39/28 
f 109/115/83 90/96/83 52/52/40 
f 109/115/83 89/95/82 90/96/83 
f 109/115/83 110/116/82 89/95/82 
f 111/117/98 89/95/82 110/116/82 
f 86/92/80 78/84/72 71/77/67 
f 69/75/65 71/77/67 78/84/72 
f 51/51/39 86/92/80 71/77/67 
f 72/78/68 51/51/39 71/77/67 
f 51/51/39 44/44/33 38/38/27 
f 51/51/39 72/78/68 112/118/99 
f 44/44/100 51/51/39 112/118/99 
f 73/79/69 74/80/70 112/118/99 
f 73/79/69 112/118/99 72/78/68 
f 74/80/70 73/79/69 55/55/43 
f 40/40/29 48/48/29 74/80/70 
f 113/119/101 44/44/100 112/118/99 
f 74/80/70 113/119/101 112/118/99 
f 74/80/70 48/48/29 113/119/101 
f 114/120/42 18/18/102 44/44/100 
f 114/120/42 44/44/100 113/119/101 
f 18/18/102 114/120/42 34/34/23 
f 114/120/42 46/46/24 34/34/23 
f 46/46/24 114/120/42 113/119/101 
f 46/46/24 113/119/101 48/48/29 
f 18/18/102 34/34/23 19/19/103 
f 19/19/103 115/121/104 27/27/105 
f 19/19/103 34/34/23 115/121/104 
f 115/121/104 34/34/23 116/122/23 
f 34/34/23 117/123/25 116/122/23 
f 115/121/104 116/122/23 118/124/106 
f 34/34/23 36/36/25 117/123/25 
f 115/121/104 118/124/106 119/125/106 
f 117/123/25 36/36/25 54/54/42 
f 117/123/25 54/54/42 120/126/42 
f 36/36/25 40/40/29 54/54/42 
f 121/127/98 119/125/106 118/124/106 
f 92/98/71 120/126/42 54/54/42 
f 120/126/42 122/128/107 117/123/25 
f 117/123/25 122/128/107 116/122/23 
f 92/98/71 91/97/84 123/129/84 
f 111/117/98 123/129/84 91/97/84 
f 121/127/98 106/112/97 124/130/97 
f 121/127/98 118/124/106 125/131/98 
f 126/132/108 118/124/106 116/122/23 
f 121/127/98 125/131/98 106/112/97 
f 104/110/96 124/130/97 106/112/97 
f 125/131/98 127/133/109 106/112/97 
f 128/134/110 106/112/97 127/133/109 
f 128/134/110 105/111/20 106/112/97 
f 129/135/111 128/134/110 127/133/109 
f 130/136/112 129/135/111 131/137/112 
f 125/131/98 132/138/67 127/133/109 
f 133/139/111 127/133/109 132/138/67 
f 131/137/112 133/139/111 134/140/112 
f 135/141/112 134/140/112 133/139/111 
f 125/131/98 136/142/113 132/138/67 
f 133/139/111 132/138/67 136/142/113 
f 125/131/98 118/124/106 136/142/113 
f 126/132/108 136/142/113 118/124/106 
f 133/139/111 136/142/113 137/143/111 
f 137/143/111 136/142/113 126/132/108 
f 135/141/112 133/139/111 137/143/111 
f 137/143/111 126/132/108 138/144/111 
f 139/145/112 135/141/112 137/143/111 
f 139/145/112 137/143/111 138/144/111 
f 129/135/111 140/146/111 128/134/110 
f 130/136/112 140/146/111 129/135/111 
f 133/139/111 129/135/111 127/133/109 
f 131/137/112 129/135/111 133/139/111 
f 3/3/114 2/2/115 141/147/116 
f 142/148/117 2/2/115 1/1/118 
f 141/147/116 2/2/115 142/148/117 
f 143/149/119 5/5/120 4/4/121 
f 6/6/122 5/5/120 144/150/123 
f 144/150/123 5/5/120 143/149/119 
f 79/85/65 89/95/82 111/117/98 
f 79/85/65 111/117/98 91/97/84 
f 111/117/98 145/151/98 123/129/84 
f 111/117/98 110/116/82 145/151/98 
f 123/129/84 145/151/98 146/152/124 
f 110/116/82 146/152/124 145/151/98 
f 146/152/124 147/153/125 148/154/124 
f 146/152/124 148/154/124 149/155/126 
f 146/152/124 150/156/125 147/153/125 
f 150/156/125 151/157/127 147/153/125 
f 110/116/82 150/156/125 146/152/124 
f 109/115/83 150/156/125 110/116/82 
f 146/152/124 149/155/126 152/158/126 
f 152/158/126 149/155/126 153/159/128 
f 123/129/84 146/152/124 152/158/126 
f 92/98/71 123/129/84 152/158/126 
f 152/158/126 153/159/128 154/160/128 
f 150/156/125 155/161/127 151/157/127 
f 109/115/83 155/161/127 150/156/125 
f 108/114/40 155/161/127 109/115/83 
f 92/98/71 152/158/126 154/160/128 
f 120/126/42 92/98/71 154/160/128 
f 108/114/40 156/162/129 155/161/127 
f 120/126/42 154/160/128 157/163/130 
f 108/114/40 107/113/21 158/164/131 
f 107/113/21 105/111/20 158/164/131 
f 155/161/127 156/162/129 159/165/132 
f 154/160/128 160/166/133 157/163/130 
f 155/161/127 159/165/132 151/157/127 
f 154/160/128 153/159/128 160/166/133 
f 108/114/40 158/164/131 156/162/129 
f 120/126/42 157/163/130 122/128/107 
f 157/163/130 138/144/134 126/132/107 
f 158/164/131 105/111/135 128/134/131 
f 156/162/129 128/134/131 140/146/136 
f 156/162/129 158/164/131 128/134/131 
f 156/162/129 140/146/136 130/136/137 
f 156/162/129 130/136/137 159/165/132 
f 157/163/130 160/166/133 139/145/138 
f 157/163/130 126/132/107 122/128/107 
f 157/163/130 139/145/138 138/144/134 
f 122/128/107 126/132/107 116/122/139 
# 0 polygons - 262 triangles

