# 3ds Max Wavefront OBJ Exporter v0.99 - (c)2007 guruware
# File Created: 27.09.2024 17:11:41

mtllib parabrisa.mtl

#
# object Wangan2016r34arise0091
#

v  2.2031 -0.0198 -0.1920
v  2.5491 -0.4794 -0.7374
v  2.5471 -0.5287 -0.8564
v  -2.4519 -0.0198 -0.1920
v  -2.7959 -0.5287 -0.8564
v  -2.7979 -0.4794 -0.7374
v  1.8401 0.7596 1.1323
v  1.9301 0.6902 1.0911
v  -2.0889 0.7596 1.1323
v  -2.5749 -0.0427 -0.1088
v  -2.1799 0.6902 1.0911
v  2.3261 -0.0427 -0.1088
v  2.4321 -0.5199 -0.9444
v  -2.6809 -0.5199 -0.9444
v  1.7501 0.8004 1.1328
v  -1.9989 0.8004 1.1328
v  1.5661 0.0138 -0.4691
v  1.6501 -0.4486 -1.2291
v  -1.8149 0.0138 -0.4691
v  -1.8989 -0.4486 -1.2291
v  0.8911 0.0138 -0.6321
v  1.2061 0.8363 1.0258
v  -1.4549 0.8363 1.0258
v  -1.1399 0.0138 -0.6321
v  0.9571 -0.4170 -1.3443
v  -1.2059 -0.4170 -1.3443
v  -0.1249 -0.3870 -1.4027
v  -0.1249 0.0138 -0.7124
v  0.4101 0.6408 0.5350
v  -0.6769 0.6408 0.5362
v  0.3921 0.8498 0.9336
v  -0.6419 0.8498 0.9336
v  -0.1249 0.6408 0.4993
v  -0.6589 0.6408 0.5350
v  -0.1249 0.8498 0.9031
# 35 vertices

vn 0.3543 0.8346 -0.4173
vn 0.4567 0.8031 -0.3858
vn 0.4252 0.8110 -0.4094
vn -0.3543 0.8346 -0.4173
vn -0.4252 0.8110 -0.4094
vn -0.4567 0.8031 -0.3858
vn 0.4016 0.8346 -0.3780
vn 0.4331 0.8268 -0.3622
vn -0.4016 0.8346 -0.3780
vn -0.4409 0.8110 -0.3780
vn -0.4331 0.8268 -0.3622
vn 0.4409 0.8110 -0.3780
vn 0.3228 0.8268 -0.4567
vn -0.3228 0.8268 -0.4567
vn 0.2913 0.8583 -0.4252
vn -0.2913 0.8583 -0.4252
vn 0.1732 0.8661 -0.4724
vn 0.1890 0.8504 -0.4961
vn -0.1732 0.8661 -0.4724
vn -0.1890 0.8504 -0.4961
vn 0.0787 0.8740 -0.4803
vn 0.1102 0.8819 -0.4567
vn -0.1102 0.8819 -0.4567
vn -0.0787 0.8740 -0.4803
vn 0.0866 0.8583 -0.5039
vn -0.0866 0.8583 -0.5039
vn 0.0000 0.8583 -0.5118
vn 0.0000 0.8819 -0.4803
vn 0.0472 0.8898 -0.4567
vn -0.0630 0.8898 -0.4567
vn 0.0472 0.8898 -0.4646
vn -0.0472 0.8898 -0.4646
vn 0.0000 0.8898 -0.4567
vn -0.0472 0.8898 -0.4567
vn 0.0000 0.8898 -0.4646
# 35 vertex normals

vt 0.0836 0.5567 0.0000
vt 0.0119 0.1618 0.0000
vt 0.0122 0.1255 0.0000
vt 0.9164 0.5450 0.0000
vt 0.9730 0.1242 0.0000
vt 0.9732 0.1606 0.0000
vt 0.1518 0.9467 0.0000
vt 0.1489 0.9393 0.0000
vt 0.8398 0.9402 0.0000
vt 0.9568 0.2782 0.0000
vt 0.8357 0.9416 0.0000
vt 0.0785 0.5498 0.0000
vt 0.8387 0.9448 0.0000
vt 0.0193 0.0964 0.0000
vt 0.9524 0.0973 0.0000
vt 0.1680 0.9469 0.0000
vt 0.8366 0.9449 0.0000
vt 0.8429 0.9379 0.0000
vt 0.2012 0.4577 0.0000
vt 0.1874 0.0854 0.0000
vt 0.8071 0.4608 0.0000
vt 0.8223 0.0846 0.0000
vt 0.3222 0.4085 0.0000
vt 0.2655 0.9147 0.0000
vt 0.7424 0.9171 0.0000
vt 0.6863 0.4104 0.0000
vt 0.3117 0.0717 0.0000
vt 0.6960 0.0697 0.0000
vt 0.5023 0.0671 0.0000
vt 0.5042 0.3849 0.0000
vt 0.5028 0.0625 0.0000
vt 0.4082 0.7655 0.0000
vt 0.6031 0.7668 0.0000
vt 0.4113 0.8873 0.0000
vt 0.5966 0.8882 0.0000
vt 0.5040 0.7551 0.0000
vt 0.5998 0.7665 0.0000
vt 0.5040 0.8784 0.0000
# 38 texture coords

o Wangan2016r34arise0091
g Wangan2016r34arise0091
usemtl Material__10
s 1
f 1/1/1 2/2/2 3/3/3 
f 4/4/4 5/5/5 6/6/6 
f 1/1/1 7/7/7 8/8/8 
f 9/9/9 10/10/10 11/11/11 
f 1/1/1 12/12/12 2/2/2 
f 4/4/4 6/6/6 10/10/10 
f 1/1/1 8/8/8 12/12/12 
f 9/13/9 4/4/4 10/10/10 
f 1/1/1 3/3/3 13/14/13 
f 4/4/4 14/15/14 5/5/5 
f 15/16/15 7/7/7 1/1/1 
f 16/17/16 4/4/4 9/18/9 
f 17/19/17 1/1/1 13/14/13 
f 17/19/17 13/14/13 18/20/18 
f 19/21/19 14/15/14 4/4/4 
f 19/21/19 20/22/20 14/15/14 
f 18/20/18 21/23/21 17/19/17 
f 1/1/1 17/19/17 22/24/22 
f 23/25/23 19/21/19 4/4/4 
f 20/22/20 19/21/19 24/26/24 
f 18/20/18 25/27/25 21/23/21 
f 20/22/20 24/26/24 26/28/26 
f 1/1/1 22/24/22 15/16/15 
f 23/25/23 4/4/4 16/17/16 
f 22/24/22 17/19/17 21/23/21 
f 23/25/23 24/26/24 19/21/19 
f 25/27/25 27/29/27 28/30/28 
f 26/28/26 28/30/28 27/31/27 
f 22/24/22 21/23/21 29/32/29 
f 30/33/30 24/26/24 23/25/23 
f 31/34/31 22/24/22 29/32/29 
f 32/35/32 30/33/30 23/25/23 
f 29/32/29 28/30/28 33/36/33 
f 28/30/28 34/37/34 33/36/33 
f 32/35/32 34/37/34 30/33/30 
f 30/33/30 34/37/34 24/26/24 
f 29/32/29 35/38/35 31/34/31 
f 29/32/29 33/36/33 35/38/35 
f 34/37/34 35/38/35 33/36/33 
f 34/37/34 32/35/32 35/38/35 
f 26/28/26 24/26/24 28/30/28 
f 34/37/34 28/30/28 24/26/24 
f 28/30/28 29/32/29 21/23/21 
f 25/27/25 28/30/28 21/23/21 
# 0 polygons - 44 triangles

